HIERARCHY
ROOT hip
{
  OFFSET 0.00112043 5.09927 -9.65472
  CHANNELS 6 Xposition Yposition Zposition Zrotation Xrotation Yrotation
  JOINT abdomen
  {
    OFFSET 0 -1.186 -1.5018
    CHANNELS 3 Zrotation Xrotation Yrotation
    JOINT abdomen2
    {
      OFFSET 0 9.964 0.2134
      CHANNELS 3 Zrotation Xrotation Yrotation
      JOINT chest
      {
        OFFSET 0 13.134 -3.2573
        CHANNELS 3 Zrotation Xrotation Yrotation
        JOINT neck
        {
          OFFSET 0 20.686 -1.6905
          CHANNELS 3 Zrotation Xrotation Yrotation
          JOINT head
          {
            OFFSET 0 7.238 -0.1237
            CHANNELS 3 Zrotation Xrotation Yrotation
            End Site
            {
              OFFSET 0 0 0
            }
          }
        }
        JOINT lCollar
        {
          OFFSET 1.7069 20.075 5.0056
          CHANNELS 3 Zrotation Xrotation Yrotation
          JOINT lShldr
          {
            OFFSET 13.6458 -0.047 -4.849
            CHANNELS 3 Zrotation Xrotation Yrotation
            JOINT lForeArm
            {
              OFFSET 28.3255 -0.9759 2.2888
              CHANNELS 3 Zrotation Xrotation Yrotation
              JOINT lHand
              {
                OFFSET 22.1583 -0.53 10.8316
                CHANNELS 3 Zrotation Xrotation Yrotation
                JOINT lThumb1
                {
                  OFFSET 0.786 0.112 2.5817
                  CHANNELS 3 Zrotation Xrotation Yrotation
                  JOINT lThumb2
                  {
                    OFFSET 0.3601 -0.878 4.2331
                    CHANNELS 3 Zrotation Xrotation Yrotation
                    JOINT lThumb2_End
                    {
                      OFFSET 1.8127 -1.216 2.2227
                      CHANNELS 3 Zrotation Xrotation Yrotation
                      End Site
                      {
                        OFFSET 0.0181 -0.0122 0.0222
                      }
                    }
                  }
                }
                JOINT lCarpal1
                {
                  OFFSET 0.9571 1.114 1.7695
                  CHANNELS 3 Zrotation Xrotation Yrotation
                  JOINT lIndex1
                  {
                    OFFSET 4.1246 0.487 4.1451
                    CHANNELS 3 Zrotation Xrotation Yrotation
                    JOINT lIndex2
                    {
                      OFFSET 3.4052 -1.454 2.7682
                      CHANNELS 3 Zrotation Xrotation Yrotation
                      JOINT lIndex2_End
                      {
                        OFFSET 1.4531 -1.795 1.2713
                        CHANNELS 3 Zrotation Xrotation Yrotation
                        End Site
                        {
                          OFFSET 0.0145 -0.0179 0.0127
                        }
                      }
                    }
                  }
                  JOINT lMid1
                  {
                    OFFSET 5.6954 0.21 2.1184
                    CHANNELS 3 Zrotation Xrotation Yrotation
                    JOINT lMid2
                    {
                      OFFSET 3.9766 -1.54 2.3863
                      CHANNELS 3 Zrotation Xrotation Yrotation
                      JOINT lMid2_End
                      {
                        OFFSET 1.4042 -1.926 1.125
                        CHANNELS 3 Zrotation Xrotation Yrotation
                        End Site
                        {
                          OFFSET 0.014 -0.0193 0.0113
                        }
                      }
                    }
                  }
                }
                JOINT lCarpal2
                {
                  OFFSET 2.0956 0.66 -0.3894
                  CHANNELS 3 Zrotation Xrotation Yrotation
                  JOINT lRing1
                  {
                    OFFSET 5.0395 -0.09 2.4971
                    CHANNELS 3 Zrotation Xrotation Yrotation
                    JOINT lRing2
                    {
                      OFFSET 3.7921 -1.552 1.4806
                      CHANNELS 3 Zrotation Xrotation Yrotation
                      JOINT lRing2_End
                      {
                        OFFSET 1.4655 -1.808 0.9609
                        CHANNELS 3 Zrotation Xrotation Yrotation
                        End Site
                        {
                          OFFSET 0.0147 -0.0181 0.0096
                        }
                      }
                    }
                  }
                  JOINT lPinky1
                  {
                    OFFSET 4.9141 -1.269 0.3591
                    CHANNELS 3 Zrotation Xrotation Yrotation
                    JOINT lPinky2
                    {
                      OFFSET 3.1477 -1.685 0.8462
                      CHANNELS 3 Zrotation Xrotation Yrotation
                      JOINT lPinky2_End
                      {
                        OFFSET 0.8055 -1.585 0.7955
                        CHANNELS 3 Zrotation Xrotation Yrotation
                        End Site
                        {
                          OFFSET 0.0081 -0.0158 0.008
                        }
                      }
                    }
                  }
                }
              }
            }
          }
        }
        JOINT rCollar
        {
          OFFSET -1.7069 20.075 5.0056
          CHANNELS 3 Zrotation Xrotation Yrotation
          JOINT rShldr
          {
            OFFSET -13.6458 -0.047 -4.849
            CHANNELS 3 Zrotation Xrotation Yrotation
            JOINT rForeArm
            {
              OFFSET -28.3255 -0.9759 2.2888
              CHANNELS 3 Zrotation Xrotation Yrotation
              JOINT rHand
              {
                OFFSET -22.1583 -0.53 10.8316
                CHANNELS 3 Zrotation Xrotation Yrotation
                JOINT rThumb1
                {
                  OFFSET -0.786 0.112 2.5817
                  CHANNELS 3 Zrotation Xrotation Yrotation
                  JOINT rThumb2
                  {
                    OFFSET -0.3601 -0.878 4.2331
                    CHANNELS 3 Zrotation Xrotation Yrotation
                    JOINT rThumb2_End
                    {
                      OFFSET -1.8127 -1.216 2.2227
                      CHANNELS 3 Zrotation Xrotation Yrotation
                      End Site
                      {
                        OFFSET -0.0181 -0.0122 0.0222
                      }
                    }
                  }
                }
                JOINT rCarpal1
                {
                  OFFSET -0.9571 1.114 1.7695
                  CHANNELS 3 Zrotation Xrotation Yrotation
                  JOINT rIndex1
                  {
                    OFFSET -4.1246 0.487 4.1451
                    CHANNELS 3 Zrotation Xrotation Yrotation
                    JOINT rIndex2
                    {
                      OFFSET -3.4052 -1.454 2.7682
                      CHANNELS 3 Zrotation Xrotation Yrotation
                      JOINT rIndex2_End
                      {
                        OFFSET -1.4531 -1.795 1.2713
                        CHANNELS 3 Zrotation Xrotation Yrotation
                        End Site
                        {
                          OFFSET -0.0145 -0.018 0.0127
                        }
                      }
                    }
                  }
                  JOINT rMid1
                  {
                    OFFSET -5.6954 0.21 2.1184
                    CHANNELS 3 Zrotation Xrotation Yrotation
                    JOINT rMid2
                    {
                      OFFSET -3.9766 -1.54 2.3863
                      CHANNELS 3 Zrotation Xrotation Yrotation
                      JOINT rMid2_End
                      {
                        OFFSET -1.4042 -1.926 1.125
                        CHANNELS 3 Zrotation Xrotation Yrotation
                        End Site
                        {
                          OFFSET -0.014 -0.0193 0.0113
                        }
                      }
                    }
                  }
                }
                JOINT rCarpal2
                {
                  OFFSET -2.0956 0.66 -0.3894
                  CHANNELS 3 Zrotation Xrotation Yrotation
                  JOINT rRing1
                  {
                    OFFSET -5.0395 -0.09 2.4971
                    CHANNELS 3 Zrotation Xrotation Yrotation
                    JOINT rRing2
                    {
                      OFFSET -3.7921 -1.552 1.4806
                      CHANNELS 3 Zrotation Xrotation Yrotation
                      JOINT rRing2_End
                      {
                        OFFSET -1.4655 -1.808 0.9609
                        CHANNELS 3 Zrotation Xrotation Yrotation
                        End Site
                        {
                          OFFSET -0.0147 -0.0181 0.0096
                        }
                      }
                    }
                  }
                  JOINT rPinky1
                  {
                    OFFSET -4.9141 -1.269 0.3592
                    CHANNELS 3 Zrotation Xrotation Yrotation
                    JOINT rPinky2
                    {
                      OFFSET -3.1477 -1.685 0.8462
                      CHANNELS 3 Zrotation Xrotation Yrotation
                      JOINT rPinky2_End
                      {
                        OFFSET -0.8055 -1.585 0.7955
                        CHANNELS 3 Zrotation Xrotation Yrotation
                        End Site
                        {
                          OFFSET -0.0081 -0.0158 0.008
                        }
                      }
                    }
                  }
                }
              }
            }
          }
        }
      }
    }
  }
  JOINT lThigh
  {
    OFFSET 8.367 -8.2066 0.5982
    CHANNELS 3 Zrotation Xrotation Yrotation
    JOINT lShin
    {
      OFFSET 2.1923 -43.463 -0.4932
      CHANNELS 3 Zrotation Xrotation Yrotation
      JOINT lFoot
      {
        OFFSET 0.7333 -45.8593 -2.6451
        CHANNELS 3 Zrotation Xrotation Yrotation
        End Site
        {
          OFFSET 2.6618 -4.2699 12.3931
        }
      }
    }
  }
  JOINT rThigh
  {
    OFFSET -8.367 -8.2066 0.5982
    CHANNELS 3 Zrotation Xrotation Yrotation
    JOINT rShin
    {
      OFFSET -2.1923 -43.463 -0.4931
      CHANNELS 3 Zrotation Xrotation Yrotation
      JOINT rFoot
      {
        OFFSET -0.7333 -45.8593 -2.6451
        CHANNELS 3 Zrotation Xrotation Yrotation
        End Site
        {
          OFFSET -2.6618 -4.2699 12.3931
        }
      }
    }
  }
}
MOTION
Frames:	5
Frame Time:	0.0333333
0 91.7903 2.51682 0 0 -0 0 0 -0 0 0 -0 0 0 -0 0 0 -0 0 0 -0 0 0 -0 1.66051 0.0835086 5.75766 -0.0175111 0.895433 15.7816 7.95139e-016 -1.98785e-016 -0 5.46658e-016 -3.97569e-016 -0 5.96354e-016 0 -0 3.97569e-016 1.98785e-016 9.54166e-015 1.49089e-016 -3.97569e-016 -0 6.4605e-016 0 3.18055e-015 5.96354e-016 0 3.18055e-015 8.94531e-016 -1.98785e-016 6.36111e-015 6.4605e-016 0 3.18055e-015 5.96354e-016 0 3.18055e-015 8.94531e-016 -1.98785e-016 6.36111e-015 1.49089e-016 -3.97569e-016 -0 6.4605e-016 0 3.18055e-015 5.96354e-016 0 3.18055e-015 8.94531e-016 -1.98785e-016 6.36111e-015 6.4605e-016 0 3.18055e-015 5.96354e-016 0 3.18055e-015 8.94531e-016 -1.98785e-016 6.36111e-015 0 0 -0 -1.4496 0.0636048 -5.0245 -1.74811 1.20616 -16.8394 -1.19271e-015 1.98785e-016 -3.18055e-015 -3.97569e-016 1.98785e-016 -3.18055e-015 -2.98177e-016 1.98785e-016 -3.18055e-015 -2.98177e-016 3.97569e-016 -0 4.96962e-016 0 -6.36111e-015 -9.93923e-017 3.97569e-016 -0 -8.94531e-016 5.96354e-016 -0 -3.97569e-016 3.97569e-016 -0 -9.93923e-017 3.97569e-016 -0 -8.94531e-016 5.96354e-016 -0 -3.97569e-016 3.97569e-016 -0 4.96962e-016 0 -6.36111e-015 -9.93923e-017 3.97569e-016 -0 -8.94531e-016 5.96354e-016 -0 -3.97569e-016 3.97569e-016 -0 -9.93923e-017 3.97569e-016 -0 -8.94531e-016 5.96354e-016 -0 -3.97569e-016 3.97569e-016 -0 -4.66111 -0.998717 0.12318 0.00986924 1.54847 0.176523 4.65186 -0.572283 -0.254274 4.66111 -0.998765 -0.123176 -0.00986867 1.54869 -0.176537 -4.65186 -0.572453 0.25427 
2.79173 70.1606 -13.0468 0 0 -0 -0.00375011 0.545187 -0.0296242 -0.00721879 1.09038 -0.0592166 -0.0072188 1.09038 -0.0592167 -0.0335251 0.0176986 0.0903023 1.04281e-008 -2.13371e-007 -1.31914e-008 -2.65288 -0.064492 2.11002e-007 -6.26625 -0.435183 -7.16186 -4.03215 -20.4163 10.6922 -2.1581 0.852431 -0.0233393 8.11248e-008 1.66746e-006 2.66261e-007 -8.11248e-008 -1.66746e-006 -2.66261e-007 8.11248e-008 1.66746e-006 2.66261e-007 -2.28602e-015 0 -3.97569e-016 8.11248e-008 1.66746e-006 2.66261e-007 -8.11248e-008 -1.66746e-006 -2.66261e-007 8.11248e-008 1.66746e-006 2.66261e-007 8.11248e-008 1.66746e-006 2.66261e-007 -8.11248e-008 -1.66746e-006 -2.66261e-007 8.11248e-008 1.66746e-006 2.66261e-007 -2.28602e-015 0 -3.97569e-016 8.11248e-008 1.66746e-006 2.66261e-007 -8.11248e-008 -1.66746e-006 -2.66261e-007 8.11248e-008 1.66746e-006 2.66261e-007 8.11248e-008 1.66746e-006 2.66261e-007 -8.11248e-008 -1.66746e-006 -2.66261e-007 8.11248e-008 1.66746e-006 2.66261e-007 2.65172 -0.0645732 2.68897e-006 6.47481 -0.408204 7.89561 -1.83497 0.924882 -11.8746 2.15173 0.864276 0.0411872 3.27995e-015 0 7.95139e-016 1.44119e-015 3.97569e-016 1.59028e-015 1.44119e-015 -3.97569e-016 7.95139e-016 1.78906e-015 3.97569e-016 -1.59028e-015 1.2424e-015 0 7.95139e-015 1.09332e-015 -3.97569e-016 2.38542e-015 9.93923e-016 0 2.38542e-015 1.2424e-015 0 7.95139e-015 1.09332e-015 -3.97569e-016 2.38542e-015 9.93923e-016 0 2.38542e-015 1.78906e-015 3.97569e-016 -1.59028e-015 1.2424e-015 0 7.95139e-015 1.09332e-015 -3.97569e-016 2.38542e-015 9.93923e-016 0 2.38542e-015 1.2424e-015 0 7.95139e-015 1.09332e-015 -3.97569e-016 2.38542e-015 9.93923e-016 0 2.38542e-015 -3.12568 -19.0717 2.44731 -0.549581 48.1728 0.399536 7.36175 20.8978 0.68479 3.12468 -19.0718 -2.44891 0.547284 48.1728 -0.3984 -7.36327 20.8978 -0.685227 
5.65917 46.8267 -29.4501 0 0 -0 -0.00571489 1.10516 -0.0602402 -0.0102702 2.21032 -0.120404 -0.0102702 2.21032 -0.120404 -0.0767062 0.0403442 0.206404 1.36313e-008 4.26405e-007 -1.23118e-008 -5.37779 -0.130707 -9.26447e-007 -14.5603 -0.929128 -20.4344 -13.857 -41.1924 1.74416 -4.37519 1.72828 -0.0138764 3.39275e-006 -4.71069e-006 -6.42148e-007 5.83787e-006 3.39192e-006 -6.84553e-007 4.36603e-006 -7.10152e-006 -4.87873e-007 -1.27222e-014 -9.54166e-015 -6.36111e-015 3.39275e-006 -4.71069e-006 -6.42148e-007 5.83787e-006 3.39192e-006 -6.84553e-007 4.36603e-006 -7.10152e-006 -4.87873e-007 3.39275e-006 -4.71069e-006 -6.42148e-007 5.83787e-006 3.39192e-006 -6.84553e-007 4.36603e-006 -7.10152e-006 -4.87873e-007 -1.27222e-014 -9.54166e-015 -6.36111e-015 3.39275e-006 -4.71069e-006 -6.42148e-007 5.83787e-006 3.39192e-006 -6.84553e-007 4.36603e-006 -7.10152e-006 -4.87873e-007 3.39275e-006 -4.71069e-006 -6.42148e-007 5.83787e-006 3.39192e-006 -6.84553e-007 4.36603e-006 -7.10152e-006 -4.87873e-007 5.37543 -0.130872 3.78843e-006 14.7557 -0.855343 21.1685 -1.8985 0.629259 -6.77578 4.36199 1.75298 0.0496738 -5.76476e-015 0 -0 -5.56597e-015 -1.59028e-015 -3.18055e-015 4.89177e-008 4.15437e-007 -8.3681e-008 -2.98177e-015 7.95139e-016 3.18055e-015 -7.15625e-015 0 1.11319e-014 -6.55989e-015 -2.38542e-015 -4.77083e-015 4.89177e-008 4.15437e-007 -8.3681e-008 -7.15625e-015 0 1.11319e-014 -6.55989e-015 -2.38542e-015 -4.77083e-015 4.89177e-008 4.15437e-007 -8.3681e-008 -2.98177e-015 7.95139e-016 3.18055e-015 -7.15625e-015 0 1.11319e-014 -6.55989e-015 -2.38542e-015 -4.77083e-015 4.89177e-008 4.15437e-007 -8.3681e-008 -7.15625e-015 0 1.11319e-014 -6.55989e-015 -2.38542e-015 -4.77083e-015 4.89177e-008 4.15437e-007 -8.3681e-008 -0.91224 -38.5509 6.36167 160.338 82.831 -159.272 9.19858 43.2655 2.28961 0.909156 -38.5546 -6.36514 -160.341 82.8276 159.271 -9.20153 43.2655 -2.29045 
7.92019 28.2831 -42.7738 0 0 -0 -0.00590959 1.54671 -0.0845061 -0.00954133 3.09342 -0.168945 -0.00954133 3.09342 -0.168945 -0.0431115 0.0227285 0.116102 2.26389e-009 -8.51815e-007 -5.23773e-010 -7.5265 -0.182914 -1.37369e-006 -21.1987 -1.26363 -30.9034 -30.0242 -55.4852 -12.5275 -6.1244 2.41828 0.0174981 -2.62652e-006 -2.02337e-006 -2.15178e-006 -6.78474e-006 -3.63925e-007 2.82123e-006 -3.18055e-015 0 -0 3.18055e-015 3.18055e-015 3.18055e-015 -2.62652e-006 -2.02337e-006 -2.15178e-006 -6.78474e-006 -3.63925e-007 2.82123e-006 -3.18055e-015 -9.54166e-015 6.36111e-015 -2.62652e-006 -2.02337e-006 -2.15178e-006 -6.78474e-006 -3.63925e-007 2.82123e-006 -3.18055e-015 -9.54166e-015 6.36111e-015 3.18055e-015 3.18055e-015 3.18055e-015 -2.62652e-006 -2.02337e-006 -2.15178e-006 -6.78474e-006 -3.63925e-007 2.82123e-006 -3.18055e-015 -9.54166e-015 6.36111e-015 -2.62652e-006 -2.02337e-006 -2.15178e-006 -6.78474e-006 -3.63925e-007 2.82123e-006 -3.18055e-015 -9.54166e-015 6.36111e-015 7.52321 -0.183142 3.01075e-006 21.3765 -1.15549 31.6372 -1.9299 0.392878 -2.75556 6.10568 2.45359 0.0321554 -4.20921e-006 1.99337e-006 -4.22535e-007 -3.0863e-006 1.1704e-006 -1.88093e-007 3.6657e-006 1.21675e-006 -5.3552e-007 -2.38542e-015 1.59028e-015 -3.18055e-015 -4.20921e-006 1.99337e-006 -4.22535e-007 -3.0863e-006 1.1704e-006 -1.88093e-007 3.6657e-006 1.21675e-006 -5.3552e-007 -4.20921e-006 1.99337e-006 -4.22535e-007 -3.0863e-006 1.1704e-006 -1.88093e-007 3.6657e-006 1.21675e-006 -5.3552e-007 -2.38542e-015 1.59028e-015 -3.18055e-015 -4.20921e-006 1.99337e-006 -4.22535e-007 -3.0863e-006 1.1704e-006 -1.88093e-007 3.6657e-006 1.21675e-006 -5.3552e-007 -4.20921e-006 1.99337e-006 -4.22535e-007 -3.0863e-006 1.1704e-006 -1.88093e-007 3.6657e-006 1.21675e-006 -5.3552e-007 1.88393 -56.185 14.5063 171.915 44.4482 -166.91 6.57211 63.4305 7.6829 -1.88422 -56.1917 -14.5073 -171.925 44.4437 166.908 -6.5775 63.4305 -7.68317 
8.96008 20.1465 -48.9864 0 0 -0 -0.00559673 1.74979 -0.0957016 -0.00827359 3.4996 -0.191366 -0.00827359 3.49959 -0.191366 0.143457 -0.0750492 -0.389704 1.31926e-008 -8.51253e-007 1.0855e-009 -8.51483 -0.206904 7.84198e-007 -24.2776 -1.39554 -35.7198 -42.156 -60.6528 -23.4357 -6.92942 2.73526 0.0390229 -6.36111e-015 0 -6.36111e-015 -7.21649e-007 1.0415e-006 -1.12922e-006 0 0 -0 -6.36111e-015 3.18055e-015 -6.36111e-015 -0 -9.54166e-015 -0 -7.21649e-007 1.0415e-006 -1.12922e-006 3.53113e-031 -6.36111e-015 3.18055e-015 -0 -9.54166e-015 -0 -7.21649e-007 1.0415e-006 -1.12922e-006 3.53113e-031 -6.36111e-015 3.18055e-015 -6.36111e-015 3.18055e-015 -6.36111e-015 -0 -9.54166e-015 -0 -7.21649e-007 1.0415e-006 -1.12922e-006 3.53113e-031 -6.36111e-015 3.18055e-015 -0 -9.54166e-015 -0 -7.21649e-007 1.0415e-006 -1.12922e-006 3.53113e-031 -6.36111e-015 3.18055e-015 8.5111 -0.207165 -1.70236e-006 24.4452 -1.2727 36.4533 -1.93874 0.283531 -0.906479 6.9081 2.7756 0.0169475 -7.95139e-016 1.59028e-015 3.18055e-015 -2.34303e-007 -7.74365e-007 2.72697e-007 -1.17152e-007 -3.87183e-007 1.36348e-007 -7.95139e-016 1.59028e-015 -0 -3.97569e-015 -1.59028e-015 6.36111e-015 -2.34303e-007 -7.74365e-007 2.72697e-007 -1.17152e-007 -3.87183e-007 1.36348e-007 -3.97569e-015 -1.59028e-015 6.36111e-015 -2.34303e-007 -7.74365e-007 2.72697e-007 -1.17152e-007 -3.87183e-007 1.36348e-007 -7.95139e-016 1.59028e-015 -0 -3.97569e-015 -1.59028e-015 6.36111e-015 -2.34303e-007 -7.74365e-007 2.72697e-007 -1.17152e-007 -3.87183e-007 1.36348e-007 -3.97569e-015 -1.59028e-015 6.36111e-015 -2.34303e-007 -7.74365e-007 2.72697e-007 -1.17152e-007 -3.87183e-007 1.36348e-007 4.65221 -67.9729 26.2581 171.873 26.4764 -161.12 -9.67928 76.1769 25.242 -4.65052 -67.9617 -26.2577 -171.877 26.4908 161.113 9.66495 76.1775 -25.2359 
